<?xml version="1.0" encoding="utf-8" ?>	<!-- Generator: Assembly 2.2 - http://assemblyapp.co -->	<svg version="1.1" xmlns="http://www.w3.org/2000/svg" xmlns:xlink="http://www.w3.org/1999/xlink" width="2048.00" height="1365.33" viewBox="0 0 2048.0 1365.3333333333335">		<g id="document" transform="matrix(1,0,0,1,1024.0,682.6666666666667)">			<defs>				<filter id="UfCtKn5a" x="0.00%" y="0.00%" width="100.36%" height="101.12%" filterUnits="objectBoundingBox">					<feOffset dx="6.48" dy="12.96" in="SourceAlpha" result="shadowOffsetOuter1" />					<feGaussianBlur stdDeviation="0.00" in="shadowOffsetOuter1" result="shadowBlurOuter1" />					<feFlood flood-color="#000000" flood-opacity="0.42" />					<feComposite in2="shadowBlurOuter1" operator="in" />					<feMerge>						<feMergeNode />						<feMergeNode in="SourceGraphic" />					</feMerge>				</filter>			</defs>			<path d="M-717.987,-524.491 C-717.987,-561.822 -736.652,-580.487 -773.983,-580.487 C-811.313,-580.487 -829.978,-560.992 -829.978,-522.003 C-829.978,-507.071 -824.586,-494.42 -813.802,-484.05 C-803.017,-473.681 -789.744,-468.496 -773.983,-468.496 C-736.652,-468.496 -717.987,-487.161 -717.987,-524.491 Z M-624.661,250.736 C-624.661,244.099 -630.468,240.781 -642.082,240.781 C-666.139,240.781 -684.39,239.122 -696.833,235.803 C-704.299,234.144 -708.655,230.411 -709.899,224.604 C-711.143,218.797 -711.765,199.303 -711.765,166.12 L-711.765,-173.586 C-711.765,-195.984 -711.351,-212.161 -710.521,-222.116 C-710.521,-232.07 -710.521,-236.218 -710.521,-234.559 C-710.521,-267.742 -713.839,-290.555 -720.476,-302.998 L-732.919,-295.532 C-772.738,-271.475 -820.438,-258.202 -876.019,-255.713 C-890.122,-254.883 -897.173,-251.565 -897.173,-245.758 C-897.173,-239.122 -892.61,-235.803 -883.485,-235.803 C-878.508,-235.803 -874.36,-236.218 -871.042,-237.048 L-834.956,-238.292 C-825.83,-238.292 -820.646,-236.426 -819.401,-232.693 C-818.157,-228.96 -817.12,-216.723 -816.29,-195.984 L-815.046,181.052 C-815.046,211.746 -816.498,228.96 -819.401,232.693 C-822.305,236.426 -839.518,238.707 -871.042,239.536 C-887.633,239.536 -895.929,243.684 -895.929,251.98 C-895.929,257.787 -891.366,260.69 -882.241,260.69 C-876.434,260.69 -871.456,260.276 -867.309,259.446 L-737.897,256.957 C-721.305,256.957 -700.566,257.787 -675.679,259.446 C-654.94,261.105 -644.986,261.935 -645.815,261.935 C-631.713,261.935 -624.661,258.202 -624.661,250.736 Z M-146.833,80.2603 C-146.833,72.7942 -149.736,69.0612 -155.543,69.0612 C-163.009,69.0612 -167.987,72.7942 -170.475,80.2603 C-179.6,121.738 -192.873,156.58 -210.294,184.785 C-232.693,221.286 -293.251,239.536 -391.969,239.536 C-423.492,239.536 -450.453,239.122 -472.851,238.292 C-413.123,141.233 -334.314,9.74737 -236.426,-156.165 C-193.288,-229.996 -171.72,-271.475 -171.72,-280.6 C-171.72,-283.089 -172.134,-285.162 -172.964,-286.822 L-189.14,-286.822 C-350.905,-286.822 -460.822,-288.066 -518.892,-290.555 C-525.528,-270.645 -533.824,-230.826 -543.779,-171.097 C-549.586,-136.256 -552.489,-118.42 -552.489,-117.591 C-552.489,-110.954 -549.171,-107.636 -542.534,-107.636 C-534.239,-107.636 -528.847,-112.613 -526.358,-122.568 C-513.915,-180.637 -496.909,-219.42 -475.34,-238.914 C-453.771,-258.409 -416.441,-268.156 -363.349,-268.156 C-329.337,-268.156 -303.205,-266.912 -284.955,-264.423 L-501.471,100.17 C-537.972,164.046 -565.347,212.161 -583.598,244.514 C-586.087,248.662 -587.331,251.15 -587.331,251.98 C-587.331,258.616 -576.132,261.935 -553.734,261.935 L-550.001,261.935 C-537.557,261.935 -514.329,261.105 -480.317,259.446 C-448.794,258.616 -407.316,258.202 -355.883,258.202 L-180.43,259.446 C-177.112,225.434 -167.572,174.83 -151.81,107.636 C-148.492,93.5333 -146.833,84.4081 -146.833,80.2603 Z M344.684,80.2603 C344.684,72.7942 341.78,69.0612 335.973,69.0612 C328.507,69.0612 323.53,72.7942 321.041,80.2603 C311.916,121.738 298.643,156.58 281.222,184.785 C258.824,221.286 198.266,239.536 99.5476,239.536 C68.0242,239.536 41.0634,239.122 18.6652,238.292 C78.3937,141.233 157.202,9.74737 255.091,-156.165 C298.228,-229.996 319.797,-271.475 319.797,-280.6 C319.797,-283.089 319.382,-285.162 318.552,-286.822 L302.376,-286.822 C140.611,-286.822 30.6938,-288.066 -27.3756,-290.555 C-34.0121,-270.645 -42.3077,-230.826 -52.2625,-171.097 C-58.0694,-136.256 -60.9729,-118.42 -60.9729,-117.591 C-60.9729,-110.954 -57.6547,-107.636 -51.0182,-107.636 C-42.7225,-107.636 -37.3304,-112.613 -34.8417,-122.568 C-22.3982,-180.637 -5.39216,-219.42 16.1765,-238.914 C37.7451,-258.409 75.0755,-268.156 128.168,-268.156 C162.18,-268.156 188.311,-266.912 206.561,-264.423 L-9.95476,100.17 C-46.4556,164.046 -73.8311,212.161 -92.0815,244.514 C-94.5702,248.662 -95.8146,251.15 -95.8146,251.98 C-95.8146,258.616 -84.6155,261.935 -62.2173,261.935 L-58.4842,261.935 C-46.0408,261.935 -22.813,261.105 11.1991,259.446 C42.7225,258.616 84.2007,258.202 135.634,258.202 L311.086,259.446 C314.405,225.434 323.945,174.83 339.706,107.636 C343.024,93.5333 344.684,84.4081 344.684,80.2603 Z M897.173,-275.622 C897.173,-281.429 893.44,-284.333 885.974,-284.333 C879.337,-284.333 873.738,-283.918 869.175,-283.089 C864.612,-282.259 854.865,-281.844 839.933,-281.844 L805.091,-281.844 C786.841,-281.844 763.613,-282.674 735.408,-284.333 C732.919,-285.162 729.601,-285.577 725.453,-285.577 C715.498,-285.577 710.521,-282.674 710.521,-276.867 C710.521,-270.23 714.669,-266.912 722.965,-266.912 C751.999,-266.912 769.627,-266.082 775.849,-264.423 C782.071,-262.764 785.182,-258.202 785.182,-250.736 C785.182,-238.292 745.363,-107.221 665.725,142.478 C655.77,114.272 646.645,90.215 638.349,70.3055 C613.462,5.59955 598.115,-35.8786 592.308,-54.129 L571.154,-116.346 C563.688,-137.085 556.637,-156.995 550.001,-176.075 C533.409,-220.871 525.114,-246.588 525.114,-253.224 C525.114,-260.69 537.972,-264.838 563.688,-265.668 C594.382,-266.497 609.729,-269.816 609.729,-275.622 C609.729,-282.259 605.167,-285.577 596.041,-285.577 L532.58,-284.333 C501.886,-283.503 477.829,-282.674 460.408,-281.844 C448.794,-281.844 441.328,-281.844 438.009,-281.844 C428.055,-281.844 413.537,-282.466 394.457,-283.711 C375.377,-284.955 361.275,-285.577 352.15,-285.577 C341.365,-285.577 335.973,-282.259 335.973,-275.622 C335.973,-267.327 346.965,-263.179 368.948,-263.179 C390.932,-263.179 404.412,-261.105 409.39,-256.957 C412.708,-256.128 429.299,-214.65 459.163,-132.523 C502.301,-12.2361 554.563,128.375 615.951,289.31 C602.678,337.425 584.427,391.761 561.2,452.319 C545.438,492.968 533.824,513.292 526.358,513.292 C521.381,513.292 515.159,506.241 507.693,492.139 C497.738,473.888 481.562,464.763 459.163,464.763 C442.572,464.763 429.092,469.74 418.722,479.695 C408.353,489.65 403.168,502.508 403.168,518.27 C403.168,536.52 409.597,551.452 422.455,563.066 C435.313,574.68 451.697,580.487 471.607,580.487 C518.062,580.487 554.563,545.231 581.109,474.718 C624.246,358.579 678.583,195.155 744.118,-15.5543 C767.346,-91.0446 784.767,-147.87 796.381,-186.03 L806.336,-217.138 L815.046,-239.536 C819.194,-251.15 823.964,-258.202 829.356,-260.69 C834.748,-263.179 847.399,-264.838 867.309,-265.668 C887.218,-266.497 897.173,-269.816 897.173,-275.622 Z " fill="#f58231" fill-opacity="1.00" filter="url(#UfCtKn5a)" />		</g>	</svg>